<svg xmlns="http://www.w3.org/2000/svg" xmlns:xlink="http://www.w3.org/1999/xlink" width="39.488" height="39.488" viewBox="0 0 39.488 39.488">
  <defs>
    <clipPath id="clip-path">
      <rect id="Rectangle_2" data-name="Rectangle 2" width="39.488" height="39.488" fill="none"/>
    </clipPath>
  </defs>
  <g id="Logo" transform="translate(19.744 19.744)">
    <g id="Group_18" data-name="Group 18" transform="translate(-19.744 -19.744)" clip-path="url(#clip-path)">
      <path id="Path_229" data-name="Path 229" d="M39.488,19.744A19.744,19.744,0,1,1,19.744,0,19.744,19.744,0,0,1,39.488,19.744" fill="#fff"/>
      <path id="Path_230" data-name="Path 230" d="M21.923,8.536a11.6,11.6,0,0,0-3.972,0c-.1.017-.136-.078-.061-.136l2.047-1.557L21.984,8.4c.075.058.037.153-.061.136m-3.418,9.777a.227.227,0,0,0-.133.129c.415.32.7,1.044,1.564,1.044s1.149-.724,1.564-1.044a.227.227,0,0,0-.133-.129,6.78,6.78,0,0,1-1.432.129,6.78,6.78,0,0,1-1.432-.129m1.432-1.221c-.241,0-.292-.092-.456-.092a.8.8,0,0,0-.524.238.255.255,0,0,0,.068.156c.35.054.507.248.915.248s.564-.194.915-.248a.252.252,0,0,0,.068-.156A.812.812,0,0,0,20.4,17c-.156,0-.218.092-.456.092m19.713,3.734q-.037.707-.126,1.4C37.3,22.6,36.5,20.6,34.209,20.706a14.251,14.251,0,0,1,.333,1.486c1.887,0,2.649,1.765,4.751,1.5q-.163.809-.394,1.595c-1.659.163-2.248-1.486-4.169-1.442.017.275.024.551.024.83,0,.153,0,.309-.007.462,1.639-.02,2.173,1.5,3.734,1.425q-.292.8-.653,1.557c-1.122-.061-1.51-1.5-3.217-1.387q-.075.554-.194,1.095c1.483-.105,1.8,1.262,2.863,1.37q-.4.741-.871,1.442c-.629-.337-1.177-1.353-2.367-1.418q.184-.564.32-1.149a4.937,4.937,0,0,1-3.282-1.336c.33-1.874-2.578-3.778-2.578-5.152,0-1.489.755-2.312.755-4.322a6.293,6.293,0,0,0-1.816-4.213,3.663,3.663,0,0,0-.677-.544,7.054,7.054,0,0,1,1.775,4.417c0,1.891-.881,2.891-.881,4.635s2.554,3.258,2.554,5.057a5.687,5.687,0,0,1-.973,2.758,5.756,5.756,0,0,0,3.6,1.768.554.554,0,0,0,.592-.34c.112-.245.187-.425.275-.643,1.037.041,1.513.983,2.088,1.36q-.473.633-.993,1.228A3.729,3.729,0,0,0,33.145,31.4q-.2.394-.432.779a3.2,3.2,0,0,1,1.445,1.268Q33.6,34.03,33,34.564a3.807,3.807,0,0,0-1.085-1.156q-.245.33-.507.643a3.447,3.447,0,0,1,.918,1.081q-.7.561-1.445,1.061c-.245-2.006-2.982-3.38-2.244-5.706a3.049,3.049,0,0,0-.53,1.54c0,1.687,1.8,3.02,1.938,4.7q-.558.333-1.139.629c-.065-1.84-1.966-3.853-1.966-5.363,0-1.687,2.207-3.377,2.207-5.37S26.6,23.25,26.6,21.505s1.085-2.751,1.085-4.992a5.977,5.977,0,0,0-1.983-4.36,3.278,3.278,0,0,0-.673-.469,6.451,6.451,0,0,1,1.792,4.472c0,2.1-1.241,3.275-1.241,5.336s2.5,3.207,2.5,5.128-2.343,3.54-2.343,5.516c0,1.8,2.051,3.588,2.081,5.72q-.673.292-1.37.537C26.7,36.24,24.4,34.02,24.4,32.261c0-1.921,2.414-3.571,2.414-5.642s-2.455-3.037-2.455-5.162,1.506-3.3,1.506-5.648a5.727,5.727,0,0,0-2.224-4.5l-.082-.065c-.126-.092-.228.02-.139.129a6.029,6.029,0,0,1,1.435,4.094c0,2.149-1.728,3.894-1.728,5.975,0,2.455,2.323,3.159,2.323,5.172s-2.489,3.625-2.489,5.764c0,1.983,2.357,4.186,1.952,6.475q-.707.184-1.438.316c.442-2.85-1.87-4.9-1.87-6.764,0-2.02,2.578-3.819,2.578-5.791,0-1.86-1.85-2.469-2.095-4.373a.447.447,0,0,0-.53-.4,6.307,6.307,0,0,1-1.615.316,6.307,6.307,0,0,1-1.615-.316.449.449,0,0,0-.53.4c-.241,1.9-2.095,2.513-2.095,4.373,0,1.972,2.578,3.771,2.578,5.791,0,1.864-2.312,3.911-1.87,6.764q-.728-.133-1.438-.316c-.4-2.289,1.952-4.492,1.952-6.475,0-2.139-2.489-3.751-2.489-5.764s2.326-2.717,2.326-5.176c0-2.081-1.728-3.826-1.728-5.975a6.029,6.029,0,0,1,1.435-4.094c.088-.109-.014-.221-.139-.129l-.082.065a5.727,5.727,0,0,0-2.224,4.5c0,2.346,1.506,3.523,1.506,5.648s-2.452,3.088-2.452,5.159,2.414,3.72,2.414,5.642c0,1.758-2.309,3.975-2.047,6.131q-.7-.245-1.37-.537c.031-2.132,2.081-3.924,2.081-5.72,0-1.976-2.326-3.594-2.326-5.516s2.5-3.067,2.5-5.128-1.241-3.231-1.241-5.336a6.451,6.451,0,0,1,1.792-4.472,3.265,3.265,0,0,0-.673.469,5.977,5.977,0,0,0-1.983,4.36c0,2.238,1.085,3.244,1.085,4.992s-2.547,3.125-2.547,5.115,2.207,3.683,2.207,5.37c0,1.51-1.9,3.523-1.966,5.363q-.582-.3-1.139-.629c.143-1.673,1.938-3.01,1.938-4.7a3.049,3.049,0,0,0-.53-1.54c.738,2.326-2,3.7-2.244,5.706q-.748-.5-1.449-1.061a3.448,3.448,0,0,1,.918-1.081q-.262-.313-.507-.643A3.846,3.846,0,0,0,6.9,34.557q-.605-.53-1.163-1.112a3.2,3.2,0,0,1,1.445-1.268Q6.954,31.8,6.75,31.4A3.752,3.752,0,0,0,5.09,32.741q-.52-.6-.993-1.228c.575-.377,1.051-1.319,2.088-1.36q.129.326.275.643a.554.554,0,0,0,.592.34,5.788,5.788,0,0,0,3.6-1.768,5.687,5.687,0,0,1-.973-2.758c0-1.8,2.554-3.309,2.554-5.057s-.891-2.734-.891-4.625a7.035,7.035,0,0,1,1.775-4.417,3.666,3.666,0,0,0-.677.544,6.286,6.286,0,0,0-1.816,4.213c0,2.01.755,2.833.755,4.322,0,1.374-2.908,3.278-2.578,5.152a4.938,4.938,0,0,1-3.285,1.336c.092.388.2.772.32,1.149-1.194.065-1.738,1.081-2.367,1.418q-.466-.7-.871-1.442c1.061-.109,1.381-1.476,2.863-1.37q-.119-.541-.194-1.095c-1.707-.116-2.095,1.326-3.217,1.387Q1.7,27.365,1.4,26.569c1.561.071,2.095-1.445,3.734-1.425,0-.153-.007-.306-.007-.462,0-.279.01-.554.024-.83-1.921-.044-2.506,1.605-4.169,1.442Q.758,24.508.591,23.7c2.1.258,2.86-1.506,4.751-1.5a14.286,14.286,0,0,1,.333-1.486C3.383,20.608,2.584,22.6.35,22.23q-.088-.694-.126-1.4c2.6.292,3.571-1.847,5.937-1.585A14.038,14.038,0,0,1,6.937,17.6C3.968,17.085,2.961,19.564.2,19.183a19.745,19.745,0,0,1,39.474,0c-2.761.381-3.768-2.1-6.733-1.578a14.028,14.028,0,0,1,.775,1.639c2.363-.262,3.339,1.874,5.937,1.585m-28.2-8.284a5.136,5.136,0,0,0-4.717.51,5.146,5.146,0,0,0-2.074-3.39.177.177,0,0,0-.289.17c.228,2.952-1.5,5.519-3.622,7.774,2.19.656,4.054-2.163,6.893-1.177a14.9,14.9,0,0,1,3.809-3.887m8.488-1.785a3.831,3.831,0,0,0-3.771,2.377c-.031.1.01.17.129.116a2.727,2.727,0,0,1,1.112-.221,2.286,2.286,0,0,1,1.8.752,3.2,3.2,0,0,1-.007,1.86c-.306-.068-.418-.306-.718-.306s-.534.211-1.044.211-.571-.241-.9-.241c-.394,0-.466.4-.466.864,0,2.044,1.877,4.853,3.873,4.853S23.81,18.21,23.81,16.17c0-.459-.1-.85-.507-.9a1.252,1.252,0,0,1-.864.279c-.469,0-.65-.211-.952-.211-.36,0-.326.765-.758.806a3.628,3.628,0,0,1-.061-2.36,2.279,2.279,0,0,1,1.8-.752,2.662,2.662,0,0,1,1.112.221c.119.054.16-.014.129-.116a3.828,3.828,0,0,0-3.771-2.377m2.918,2.928a1.73,1.73,0,0,0-1.279.5.5.5,0,0,0,.014.343c.8-.272,1.5-.282,1.84.1a.612.612,0,0,0,.238-.483c0-.265-.269-.449-.813-.449m-6.407.935a2.047,2.047,0,0,1,2.037-.058c.037-.418-.714-.877-1.462-.877-.544,0-.813.184-.813.449a.612.612,0,0,0,.238.483m12.63-6.91a6.5,6.5,0,0,0-3.72,1.428A14.681,14.681,0,0,1,27.027,5.8a7.173,7.173,0,0,0-4.506,2.02l-.881-2.306L23.593,3.8l-2.615-.184L19.937,1.177,18.893,3.608,16.278,3.8,18.23,5.519l-.881,2.306A7.172,7.172,0,0,0,12.843,5.8a14.694,14.694,0,0,1,1.673,3.333A6.5,6.5,0,0,0,10.8,7.709,17.413,17.413,0,0,1,13,11.293a.238.238,0,0,0,.35.116,14.833,14.833,0,0,1,13.157,0,.237.237,0,0,0,.35-.116,17.561,17.561,0,0,1,2.207-3.584m3.159,8.723c2.84-.983,4.7,1.836,6.893,1.177-2.125-2.255-3.853-4.822-3.622-7.777a.179.179,0,0,0-.292-.17,5.142,5.142,0,0,0-2.071,3.39,5.146,5.146,0,0,0-4.717-.51,14.891,14.891,0,0,1,3.815,3.89" transform="translate(-0.193)" fill="#006341"/>
      <path id="Path_231" data-name="Path 231" d="M882.553,1115.511h-.2v-1.238H881.9v-.173h1.109v.173h-.456Z" transform="translate(-851.91 -1076.214)" fill="#006341"/>
      <path id="Path_232" data-name="Path 232" d="M920.735,1115.185h0l.422-1.085h.309v1.411h-.2v-1.18h0l-.473,1.18h-.126l-.469-1.18h0v1.18H920V1114.1h.309Z" transform="translate(-888.714 -1076.214)" fill="#006341"/>
    </g>
  </g>
</svg>
